<?xml version="1.0" encoding="UTF-8"?>
<svg width="561px" height="575px" viewBox="0 0 561 575" version="1.1" xmlns="http://www.w3.org/2000/svg" xmlns:xlink="http://www.w3.org/1999/xlink">
    <!-- Generator: sketchtool 54.1 (76490) - https://sketchapp.com -->
    <title>675C0B0D-08C8-47C2-B8E9-17C14FD87B70</title>
    <desc>Created with sketchtool.</desc>
    <defs>
        <polygon id="path-1" points="0 0.2105 523.7998 0.2105 523.7998 520 0 520"></polygon>
        <path d="M47.491,1.744 C48.129,1.233 48.898,0.982 49.664,0.978 L49.664,0.978 C48.898,0.982 48.129,1.232 47.491,1.744 M52.261,2.097 C51.591,1.372 50.666,0.991 49.73,0.978 L49.73,0.978 C50.666,0.991 51.591,1.372 52.261,2.097 M47.491,1.744 L1.827,38.351 L47.491,1.744 C47.491,1.744 47.491,1.744 47.491,1.744 M52.404,2.262 L102.028,63.223 C102.547,63.86 102.8,64.628 102.8,65.393 L102.8,65.393 C102.8,64.628 102.547,63.86 102.028,63.223 L102.028,63.223 L52.404,2.262 C52.358,2.205 52.31,2.15 52.261,2.097 L52.261,2.097 C52.31,2.15 52.358,2.205 52.404,2.262 M0.531,41.056 C0.531,40.041 0.974,39.034 1.827,38.351 L1.827,38.351 C0.974,39.034 0.531,40.041 0.531,41.056 M1.304,43.226 L50.928,104.187 C51.035,104.319 51.151,104.441 51.273,104.553 L51.273,104.553 C51.151,104.441 51.035,104.319 50.928,104.187 L50.928,104.187 L1.304,43.226 C0.785,42.589 0.532,41.82 0.531,41.056 L0.531,41.056 C0.532,41.82 0.785,42.589 1.304,43.226 M101.507,68.099 L55.842,104.704 C55.821,104.721 55.8,104.738 55.779,104.754 L55.779,104.754 C55.8,104.738 55.821,104.721 55.842,104.704 L55.842,104.704 L101.507,68.099 C102.359,67.416 102.802,66.408 102.800007,65.393 L102.800007,65.393 C102.801,66.408 102.359,67.416 101.507,68.099 M55.779,104.754 C54.42,105.793 52.504,105.682 51.273,104.553 L51.273,104.553 C52.504,105.683 54.42,105.793 55.779,104.754" id="path-3"></path>
        <linearGradient x1="68.7111777%" y1="35.0642229%" x2="31.3058245%" y2="64.9240196%" id="linearGradient-5">
            <stop stop-color="#8D9092" offset="0%"></stop>
            <stop stop-color="#CFD1D2" offset="100%"></stop>
        </linearGradient>
        <path d="M0.831,0.747 C0.925,0.693 1.029,0.664 1.133,0.66 L1.133,0.66 C1.029,0.664 0.925,0.693 0.831,0.747 M1.61,0.835 C1.508,0.741 1.382,0.683 1.25,0.665 L1.25,0.665 C1.382,0.683 1.508,0.741 1.61,0.835 M0.746,0.805 C0.587,0.932 0.503,1.119 0.501,1.308 L0.501,1.308 C0.503,1.119 0.587,0.932 0.746,0.805 L0.746,0.805 C0.757,0.796 0.767,0.788 0.778,0.781 L0.778,0.781 C0.767,0.788 0.757,0.796 0.746,0.805 M1.674,0.904 C1.775,1.027 1.823,1.175 1.821,1.321 L1.821,1.321 C1.823,1.175 1.775,1.027 1.674,0.904 L1.674,0.904 C1.654,0.879 1.632,0.856 1.61,0.835 L1.61,0.835 C1.632,0.856 1.654,0.879 1.674,0.904 M0.647,1.726 C0.547,1.603 0.499,1.455 0.501,1.308 L0.501,1.308 C0.499,1.455 0.547,1.603 0.647,1.726 M1.576,1.824 C1.556,1.84 1.535,1.855 1.514,1.868 L1.514,1.868 C1.535,1.855 1.556,1.84 1.576,1.824 L1.576,1.824 C1.736,1.696 1.819,1.51 1.821,1.321 L1.821,1.321 C1.819,1.51 1.736,1.696 1.576,1.824 M1.125,1.968 C0.969,1.96 0.816,1.897 0.699,1.783 L0.699,1.783 C0.816,1.897 0.969,1.96 1.125,1.968 M1.195,1.969 C1.306,1.963 1.416,1.93 1.514,1.868 L1.514,1.868 C1.416,1.93 1.306,1.963 1.195,1.969" id="path-6"></path>
        <linearGradient x1="85.2222993%" y1="22.7262148%" x2="14.7129647%" y2="77.3918321%" id="linearGradient-8">
            <stop stop-color="#8D9092" offset="0%"></stop>
            <stop stop-color="#CFD1D2" offset="100%"></stop>
        </linearGradient>
        <path d="M1.97,1.413 C2.364,1.137 2.82,1.001 3.274,0.996 L3.274,0.996 C2.82,1.001 2.364,1.137 1.97,1.413 M4.941,1.675 C4.507,1.239 3.93,1.008 3.345,0.997 L3.345,0.997 C3.93,1.008 4.507,1.239 4.941,1.675 M1.846,1.506 C1.279,1.96 0.985,2.626 0.986,3.297 L0.986,3.297 C0.985,2.626 1.279,1.96 1.846,1.506 L1.846,1.506 C1.846,1.506 1.846,1.506 1.846,1.506 M5.098,1.85 C5.443,2.273 5.612,2.782 5.613,3.287 L5.613,3.287 C5.612,2.782 5.443,2.273 5.098,1.85 L5.098,1.85 C5.091,1.841 5.084,1.832 5.077,1.823 L5.077,1.823 C5.084,1.832 5.091,1.841 5.098,1.85 M4.753,5.078 C5.32,4.623 5.614,3.958 5.613,3.287 L5.613,3.287 C5.614,3.958 5.32,4.623 4.753,5.078 M1.5,4.734 C1.155,4.311 0.987,3.802 0.986,3.297 L0.986,3.297 C0.987,3.802 1.155,4.311 1.5,4.734 M1.658,4.909 C1.603,4.854 1.55,4.795 1.5,4.734 L1.5,4.734 C1.55,4.795 1.603,4.854 1.658,4.909 M3.286,5.587 C2.69,5.583 2.1,5.352 1.658,4.909 L1.658,4.909 C2.1,5.352 2.69,5.583 3.286,5.587 M3.326,5.587 C3.787,5.583 4.25,5.441 4.648,5.157 L4.648,5.157 C4.25,5.441 3.787,5.583 3.326,5.587" id="path-9"></path>
        <linearGradient x1="68.2841338%" y1="9.2374919%" x2="31.7121467%" y2="90.7403285%" id="linearGradient-11">
            <stop stop-color="#D5D7D8" offset="0%"></stop>
            <stop stop-color="#AFB1B4" offset="100%"></stop>
        </linearGradient>
        <polygon id="path-12" points="0.876383763 0.11 131.295733 0.11 131.295733 110.009625 0.876383763 110.009625"></polygon>
    </defs>
    <g id="Symbols" stroke="none" stroke-width="1" fill="none" fill-rule="evenodd">
        <g id="Mesa_Animacao">
            <g>
                <g id="Group-56" transform="translate(0.000000, 53.890000)">
                    <path d="M476.0781,112.5449 C457.2781,112.0399 375.5991,82.8969 389.3021,48.9619 C403.0041,15.0269 425.5751,0.2139 425.5751,0.2139 L512.3491,63.7959 C512.3491,63.7959 488.1061,108.4349 476.0781,112.5449" id="Fill-1" fill="#613C18"></path>
                    <path d="M435.7324,36.4814 C431.7684,36.4814 423.0734,33.9244 418.0774,36.4674 C413.0804,39.0104 387.7344,58.7024 390.9214,67.9624 C394.1094,77.2234 449.0404,114.8744 455.2694,113.4694 C461.4994,112.0654 479.4974,88.9894 479.4174,82.9654 C479.3364,76.9424 468.2944,58.6784 464.0464,55.3074 C459.7994,51.9354 435.7324,36.4814 435.7324,36.4814" id="Fill-3" fill="#2F3033"></path>
                    <path d="M427.9434,11.0527 C426.6704,12.0357 413.7864,28.6147 406.1414,33.5317 C398.4964,38.4487 405.2924,51.9357 406.9914,51.9357 C408.6894,51.9357 422.4564,46.8937 422.4564,46.8937 L427.9434,11.0527 Z" id="Fill-5" fill="#414141"></path>
                    <path d="M484.7139,58.8198 L466.1109,82.1018 C466.1109,82.1018 462.9109,96.7528 463.6189,97.5948 C464.3269,98.4378 477.2099,102.6528 482.3069,100.5458 C487.4029,98.4378 498.8709,84.1078 498.5879,83.4058 C498.3049,82.7028 501.9849,68.0918 501.9849,68.0918 L484.7139,58.8198 Z" id="Fill-7" fill="#414141"></path>
                    <g id="Mesa">
                        <mask id="mask-2" fill="white">
                            <use xlink:href="#path-1"></use>
                        </mask>
                        <g id="Clip-10"></g>
                        <path d="M517,260.11 L19,260.11 C19,122.589086 130.481168,11.11 268.001341,11.11 C405.518832,11.11 517,122.589086 517,260.11" id="Fill-1" fill="#2DAAE1" mask="url(#mask-2)"></path>
                    </g>
                    <polygon id="Fill-12" fill="#C7C8C9" points="414.7207 89.6475 393.8577 37.8445 330.1887 63.0965 351.0517 114.8985"></polygon>
                    <polygon id="Fill-14" fill="#D7D8DB" points="350.5469 57.1323 370.9049 49.0583 390.9179 98.7503 370.5599 106.8243"></polygon>
                    <polygon id="Fill-16" fill="#F1F2F2" points="370.5596 106.8242 350.5466 57.1322 330.1886 65.2062 350.2016 114.8992"></polygon>
                    <polygon id="Fill-18" fill="#808184" points="350.7578 98.4023 342.0488 76.7783 341.3158 77.0693 350.0248 98.6933"></polygon>
                    <polygon id="Fill-20" fill="#808184" points="352.0146 96.3965 344.3536 77.3725 343.6196 77.6625 351.2826 96.6875"></polygon>
                    <polygon id="Fill-22" fill="#808184" points="353.4189 94.4531 346.7209 77.8191 345.9869 78.1101 352.6859 94.7441"></polygon>
                    <path d="M356.7998,102.999 C356.0728,101.195 353.9978,100.312 352.1808,101.033 C350.3628,101.754 349.4738,103.813 350.1988,105.616 C350.9258,107.42 353.0008,108.303 354.8188,107.582 C356.6358,106.862 357.5268,104.803 356.7998,102.999" id="Fill-24" fill="#808184"></path>
                    <polygon id="Fill-26" fill="#808184" points="366.4053 101.5093 361.5903 89.5533 360.8563 89.8443 365.6723 101.8003"></polygon>
                    <polygon id="Fill-28" fill="#808184" points="368.5361 100.6641 363.7211 88.7081 362.9871 88.9991 367.8031 100.9551"></polygon>
                    <polygon id="Fill-30" fill="#808184" points="370.667 99.8193 365.852 87.8633 365.118 88.1533 369.934 100.1103"></polygon>
                    <polygon id="Fill-32" fill="#808184" points="374.9287 98.1289 359.3117 59.3529 358.5777 59.6429 374.1957 98.4199"></polygon>
                    <polygon id="Fill-34" fill="#808184" points="377.0596 97.2837 361.4426 58.5077 360.7086 58.7977 376.3266 97.5747"></polygon>
                    <polygon id="Fill-36" fill="#808184" points="379.1904 96.439 363.5734 57.662 362.8394 57.953 378.4574 96.73"></polygon>
                    <polygon id="Fill-38" fill="#808184" points="381.3213 95.5933 374.2453 78.0243 373.5113 78.3153 380.5883 95.8843"></polygon>
                    <polygon id="Fill-40" fill="#808184" points="383.4521 94.7485 367.8351 55.9715 367.1011 56.2625 382.7191 95.0395"></polygon>
                    <polygon id="Fill-42" fill="#808184" points="385.583 93.9028 376.246 70.7198 375.513 71.0108 384.85 94.1948"></polygon>
                    <polygon id="Fill-44" fill="#808184" points="387.7139 93.0581 372.0969 54.2821 371.3629 54.5721 386.9809 93.3491"></polygon>
                    <polygon id="Fill-46" fill="#808184" points="391.9756 91.3682 376.3586 52.5912 375.6246 52.8822 391.2426 91.6592"></polygon>
                    <polygon id="Fill-48" fill="#808184" points="394.1064 90.5229 378.4894 51.7469 377.7554 52.0369 393.3734 90.8139"></polygon>
                    <polygon id="Fill-50" fill="#808184" points="396.2373 89.6777 380.6203 50.9017 379.8863 51.1917 395.5043 89.9687"></polygon>
                    <polygon id="Fill-52" fill="#808184" points="398.3682 88.833 390.0772 68.249 389.3452 68.539 397.6352 89.124"></polygon>
                </g>
                <g id="Group-59" transform="translate(326.000000, 148.890000)">
                    <mask id="mask-4" fill="white">
                        <use xlink:href="#path-3"></use>
                    </mask>
                    <g id="Clip-58"></g>
                    <path d="M47.491,1.744 C48.129,1.233 48.898,0.982 49.664,0.978 L49.664,0.978 C48.898,0.982 48.129,1.232 47.491,1.744 M52.261,2.097 C51.591,1.372 50.666,0.991 49.73,0.978 L49.73,0.978 C50.666,0.991 51.591,1.372 52.261,2.097 M47.491,1.744 L1.827,38.351 L47.491,1.744 C47.491,1.744 47.491,1.744 47.491,1.744 M52.404,2.262 L102.028,63.223 C102.547,63.86 102.8,64.628 102.8,65.393 L102.8,65.393 C102.8,64.628 102.547,63.86 102.028,63.223 L102.028,63.223 L52.404,2.262 C52.358,2.205 52.31,2.15 52.261,2.097 L52.261,2.097 C52.31,2.15 52.358,2.205 52.404,2.262 M0.531,41.056 C0.531,40.041 0.974,39.034 1.827,38.351 L1.827,38.351 C0.974,39.034 0.531,40.041 0.531,41.056 M1.304,43.226 L50.928,104.187 C51.035,104.319 51.151,104.441 51.273,104.553 L51.273,104.553 C51.151,104.441 51.035,104.319 50.928,104.187 L50.928,104.187 L1.304,43.226 C0.785,42.589 0.532,41.82 0.531,41.056 L0.531,41.056 C0.532,41.82 0.785,42.589 1.304,43.226 M101.507,68.099 L55.842,104.704 C55.821,104.721 55.8,104.738 55.779,104.754 L55.779,104.754 C55.8,104.738 55.821,104.721 55.842,104.704 L55.842,104.704 L101.507,68.099 C102.359,67.416 102.802,66.408 102.800007,65.393 L102.800007,65.393 C102.801,66.408 102.359,67.416 101.507,68.099 M55.779,104.754 C54.42,105.793 52.504,105.682 51.273,104.553 L51.273,104.553 C52.504,105.683 54.42,105.793 55.779,104.754" id="Fill-57" fill="url(#linearGradient-5)" mask="url(#mask-4)"></path>
                </g>
                <g id="Group-67" transform="translate(421.000000, 230.890000)">
                    <mask id="mask-7" fill="white">
                        <use xlink:href="#path-6"></use>
                    </mask>
                    <g id="Clip-66"></g>
                    <path d="M0.831,0.747 C0.925,0.693 1.029,0.664 1.133,0.66 L1.133,0.66 C1.029,0.664 0.925,0.693 0.831,0.747 M1.61,0.835 C1.508,0.741 1.382,0.683 1.25,0.665 L1.25,0.665 C1.382,0.683 1.508,0.741 1.61,0.835 M0.746,0.805 C0.587,0.932 0.503,1.119 0.501,1.308 L0.501,1.308 C0.503,1.119 0.587,0.932 0.746,0.805 L0.746,0.805 C0.757,0.796 0.767,0.788 0.778,0.781 L0.778,0.781 C0.767,0.788 0.757,0.796 0.746,0.805 M1.674,0.904 C1.775,1.027 1.823,1.175 1.821,1.321 L1.821,1.321 C1.823,1.175 1.775,1.027 1.674,0.904 L1.674,0.904 C1.654,0.879 1.632,0.856 1.61,0.835 L1.61,0.835 C1.632,0.856 1.654,0.879 1.674,0.904 M0.647,1.726 C0.547,1.603 0.499,1.455 0.501,1.308 L0.501,1.308 C0.499,1.455 0.547,1.603 0.647,1.726 M1.576,1.824 C1.556,1.84 1.535,1.855 1.514,1.868 L1.514,1.868 C1.535,1.855 1.556,1.84 1.576,1.824 L1.576,1.824 C1.736,1.696 1.819,1.51 1.821,1.321 L1.821,1.321 C1.819,1.51 1.736,1.696 1.576,1.824 M1.125,1.968 C0.969,1.96 0.816,1.897 0.699,1.783 L0.699,1.783 C0.816,1.897 0.969,1.96 1.125,1.968 M1.195,1.969 C1.306,1.963 1.416,1.93 1.514,1.868 L1.514,1.868 C1.416,1.93 1.306,1.963 1.195,1.969" id="Fill-65" fill="url(#linearGradient-8)" mask="url(#mask-7)"></path>
                </g>
                <g id="Group-70" transform="translate(370.000000, 168.890000)">
                    <mask id="mask-10" fill="white">
                        <use xlink:href="#path-9"></use>
                    </mask>
                    <g id="Clip-69"></g>
                    <path d="M1.97,1.413 C2.364,1.137 2.82,1.001 3.274,0.996 L3.274,0.996 C2.82,1.001 2.364,1.137 1.97,1.413 M4.941,1.675 C4.507,1.239 3.93,1.008 3.345,0.997 L3.345,0.997 C3.93,1.008 4.507,1.239 4.941,1.675 M1.846,1.506 C1.279,1.96 0.985,2.626 0.986,3.297 L0.986,3.297 C0.985,2.626 1.279,1.96 1.846,1.506 L1.846,1.506 C1.846,1.506 1.846,1.506 1.846,1.506 M5.098,1.85 C5.443,2.273 5.612,2.782 5.613,3.287 L5.613,3.287 C5.612,2.782 5.443,2.273 5.098,1.85 L5.098,1.85 C5.091,1.841 5.084,1.832 5.077,1.823 L5.077,1.823 C5.084,1.832 5.091,1.841 5.098,1.85 M4.753,5.078 C5.32,4.623 5.614,3.958 5.613,3.287 L5.613,3.287 C5.614,3.958 5.32,4.623 4.753,5.078 M1.5,4.734 C1.155,4.311 0.987,3.802 0.986,3.297 L0.986,3.297 C0.987,3.802 1.155,4.311 1.5,4.734 M1.658,4.909 C1.603,4.854 1.55,4.795 1.5,4.734 L1.5,4.734 C1.55,4.795 1.603,4.854 1.658,4.909 M3.286,5.587 C2.69,5.583 2.1,5.352 1.658,4.909 L1.658,4.909 C2.1,5.352 2.69,5.583 3.286,5.587 M3.326,5.587 C3.787,5.583 4.25,5.441 4.648,5.157 L4.648,5.157 C4.25,5.441 3.787,5.583 3.326,5.587" id="Fill-68" fill="url(#linearGradient-11)" mask="url(#mask-10)"></path>
                </g>
                <g id="Group-176" transform="translate(289.000000, 0.890000)">
                    <g id="Celular" transform="translate(76.000000, 162.000000)">
                        <path d="M17.6074,57.0781 L17.6074,57.0781 L17.4114,57.0081 L17.5744,57.0671 L17.5784,57.0681 L17.6074,57.0781 Z M63.7354,23.1771 C63.7674,23.2281 63.7964,23.2801 63.8264,23.3321 L63.8364,23.3521 C63.9934,23.6391 64.1144,23.9381 64.2014,24.2431 L64.2054,24.2651 L64.2114,24.2851 L64.2234,24.3231 L64.2234,24.3241 L64.2334,24.3621 L64.2404,24.3901 L64.2424,24.4031 L64.2524,24.4411 L64.2614,24.4801 L64.2644,24.4951 L64.2704,24.5191 L64.2784,24.5581 L64.2854,24.5981 L64.2854,24.5991 C64.3804,25.0821 64.3884,25.5761 64.3164,26.0581 L64.3164,26.0581 L64.3154,26.0621 L64.3084,26.1011 L64.3024,26.1401 L64.2984,26.1611 L64.2964,26.1781 L64.2894,26.2181 L64.2824,26.2571 L64.2724,26.2951 L64.2654,26.3341 L64.2654,26.3371 L64.2564,26.3731 L64.2494,26.4121 L64.2384,26.4501 C64.0204,27.3421 63.5234,28.1691 62.7744,28.7831 L62.7384,28.8121 L62.7024,28.8411 L62.6664,28.8691 L62.6284,28.8971 L62.6204,28.9041 L62.5904,28.9251 L62.5534,28.9531 L62.5314,28.9701 L62.5154,28.9791 L62.4774,29.0071 L62.4384,29.0331 L21.3694,56.5571 C20.3364,57.2511 19.1104,57.4391 17.9844,57.1821 L17.9254,57.1671 L17.8674,57.1521 L17.8094,57.1381 L17.8074,57.1381 L17.7524,57.1221 L17.7064,57.1091 L17.6934,57.1051 L17.6364,57.0861 L17.6074,57.0781 C17.5414,57.0571 17.4754,57.0331 17.4114,57.0081 L17.2494,56.9431 L17.2164,56.9301 L17.2084,56.9261 L17.1284,56.8911 L17.1214,56.8871 L17.0894,56.8711 L17.0504,56.8521 L17.0264,56.8421 L17.0114,56.8341 L16.9724,56.8141 L16.9324,56.7931 L16.8934,56.7721 L16.8564,56.7521 L16.8404,56.7441 L16.8164,56.7301 L16.7034,56.6641 L16.6664,56.6411 L16.6584,56.6371 L16.6544,56.6351 L16.5174,56.5461 L16.4804,56.5211 C16.4224,56.4801 16.3664,56.4391 16.3094,56.3961 L16.3014,56.3911 C15.9974,56.1561 15.7184,55.8771 15.4784,55.5561 L15.4734,55.5491 C15.4304,55.4891 15.3864,55.4291 15.3454,55.3651 L1.4254,34.5991 L1.4094,34.5741 L1.3934,34.5491 L1.3774,34.5251 L1.3634,34.5061 L1.3624,34.5001 L1.3464,34.4761 L1.3314,34.4511 L1.3164,34.4271 L1.3004,34.4021 L1.2874,34.3771 L1.2724,34.3531 C0.1354,32.3941 0.7074,29.8541 2.6134,28.5731 L43.6834,1.0471 C45.6724,-0.2879 48.3754,0.2471 49.7094,2.2361 L62.1684,20.8281 L62.1694,20.8281 L63.6264,23.0051 L63.6644,23.0621 L63.6764,23.0811 L63.6884,23.0991 L63.6884,23.1011 L63.7014,23.1201 L63.7124,23.1391 L63.7244,23.1581 L63.7354,23.1771 Z" id="Fill-154" fill="#E6E5E5"></path>
                        <path d="M53.1133,15.3247 L53.1133,15.3247 L53.1413,15.3477 L53.2543,15.4097 L53.9393,15.5437 L54.6193,15.6797 L54.8333,15.5887 L54.8363,15.3577 L54.8233,15.3387 L55.1923,15.0907 L55.2443,14.8027 L54.9053,14.2907 L54.7513,14.0567 L54.4103,13.5507 L54.1223,13.4967 L53.7493,13.7407 L53.7403,13.7207 L53.5253,13.6317 L53.3603,13.7977 L53.2723,14.2517 L53.2173,14.2867 L52.9943,14.4337 L52.9393,14.7247 L53.0483,14.8837 L53.1283,14.9537 L53.0883,15.1637 L53.0983,15.2827 L53.1033,15.2967 L53.1083,15.3007 L53.1133,15.3247 Z M53.2693,15.2227 L53.2653,15.2217 L53.2633,15.1987 L53.3603,14.7057 L53.2323,14.7897 L53.1953,14.7827 L53.0873,14.6217 L53.0953,14.5837 L53.3173,14.4347 L53.4253,14.3607 L53.4303,14.3577 L53.4343,14.3397 L53.5353,13.8337 L53.5903,13.8227 L53.7023,13.9897 L54.2173,13.6427 L54.2593,13.6497 L55.0983,14.9007 L55.0903,14.9427 L54.5743,15.2877 L54.6853,15.4567 L54.6553,15.5017 C54.2003,15.4127 53.7433,15.3207 53.2883,15.2357 L53.2693,15.2227 Z" id="Fill-156" fill="#414344"></path>
                        <path d="M50.3076,8.3325 L50.3076,8.3325 L50.1926,8.9055 L50.3076,8.9445 L50.4276,8.9675 L50.5866,8.9835 L50.7016,8.4105 L50.5906,8.2455 L50.4716,8.2235 L50.3076,8.3325 Z M50.6286,9.4895 L50.6286,9.4895 L49.9806,9.3615 L49.8556,10.0055 L50.4996,10.1355 L50.6286,9.4895 Z M49.8506,9.1705 C50.1696,8.9585 50.5996,9.0445 50.8126,9.3585 C51.0246,9.6765 50.9436,10.1075 50.6216,10.3185 C50.3066,10.5325 49.8766,10.4485 49.6626,10.1285 C49.4536,9.8135 49.5346,9.3835 49.8506,9.1705 L49.8506,9.1705 Z" id="Fill-158" fill="#414344"></path>
                        <path d="M56.6553,20.3091 L56.6593,20.3151 L56.7903,20.6451 L56.7913,20.6471 L56.8243,20.6951 L56.8523,20.7271 L56.8543,20.7331 L57.2233,20.9941 L57.1663,21.1381 L57.1733,21.1641 L57.1943,21.1671 L57.4753,21.0451 L57.6733,20.9601 L57.6883,20.9441 L57.6843,20.9271 L57.6803,20.9261 L57.5433,20.7351 L57.3783,20.5191 L57.3553,20.5121 L57.3363,20.5291 L57.3133,20.6821 L57.1103,20.5341 L57.1133,20.5341 L57.0633,20.4691 C56.8903,20.2031 56.9653,19.8471 57.2293,19.6721 C57.4963,19.4961 57.8543,19.5711 58.0283,19.8391 C58.1993,20.1021 58.1273,20.4601 57.8623,20.6351 L57.7923,20.6731 L57.8653,20.9951 L58.0293,20.9051 C58.4443,20.6331 58.5643,20.0801 58.2933,19.6641 C58.0223,19.2491 57.4633,19.1351 57.0463,19.4061 C56.7373,19.6081 56.6003,19.9691 56.6553,20.3091" id="Fill-160" fill="#414344"></path>
                        <polygon id="Fill-162" fill="#414344" points="9.0156 38.3838 9.4416 38.4728 14.8086 46.4788 14.7296 46.9108 14.3006 46.8188 8.9366 38.8148"></polygon>
                        <path d="M7.4971,36.0508 C7.8241,35.8358 8.2601,35.9218 8.4771,36.2458 C8.6951,36.5708 8.6091,37.0118 8.2881,37.2308 C7.9621,37.4458 7.5201,37.3578 7.3031,37.0328 C7.0851,36.7098 7.1711,36.2708 7.4971,36.0508" id="Fill-164" fill="#414344"></path>
                        <path d="M62.1699,20.8286 L63.6259,23.0056 C63.8979,23.4086 64.0899,23.8396 64.2119,24.2856 C64.0899,23.8396 63.8979,23.4086 63.6259,23.0056 L62.1699,20.8286 Z" id="Fill-166" fill="#D6B384"></path>
                        <path d="M17.5742,57.0674 L21.3292,56.5844 C20.1802,57.3364 18.7972,57.4714 17.5792,57.0684 C18.7972,57.4714 20.1802,57.3364 21.3292,56.5844 L17.5742,57.0674 Z" id="Fill-168" fill="#DCBF99"></path>
                        <polygon id="Fill-170" fill="#D0021B" points="58.915 28.8252 22.495 53.2352 6.109 28.7892 42.529 4.3762"></polygon>
                        <g id="Group-16" transform="translate(11.000000, 13.000000)" fill="#FFFFFF">
                            <polygon id="Fill-26" transform="translate(9.598775, 24.167789) rotate(4.000000) translate(-9.598775, -24.167789) " points="17.963175 33.3425453 3.44719518 14.5352773 1.234375 14.993032 15.7533696 33.8003"></polygon>
                            <polygon id="Fill-26-Copy" transform="translate(14.598775, 20.167789) rotate(4.000000) translate(-14.598775, -20.167789) " points="22.963175 29.3425453 8.44719518 10.5352773 6.234375 10.993032 20.7533696 29.8003"></polygon>
                            <polygon id="Fill-26-Copy-2" transform="translate(18.598775, 17.167789) rotate(4.000000) translate(-18.598775, -17.167789) " points="26.963175 26.3425453 12.4471952 7.53527728 10.234375 7.99303197 24.7533696 26.8003"></polygon>
                            <polygon id="Fill-26-Copy-3" transform="translate(23.598775, 14.167789) rotate(4.000000) translate(-23.598775, -14.167789) " points="31.963175 23.3425453 17.4471952 4.53527728 15.234375 4.99303197 29.7533696 23.8003"></polygon>
                            <polygon id="Fill-26-Copy-4" transform="translate(28.598775, 11.167789) rotate(4.000000) translate(-28.598775, -11.167789) " points="36.963175 20.3425453 22.4471952 1.53527728 20.234375 1.99303197 34.7533696 20.8003"></polygon>
                        </g>
                        <polygon id="Fill-172" fill="#504D4F" points="9.2764 38.3477 9.4414 38.4727 14.8084 46.4787 14.7294 46.9107 14.4654 46.9457 14.3004 46.8187 8.9364 38.8147 9.0154 38.3837"></polygon>
                        <path d="M8.1143,35.9697 L8.4773,36.2457 C8.6953,36.5707 8.6093,37.0117 8.2883,37.2307 C8.0933,37.3567 7.8653,37.3787 7.6683,37.3137 L7.3023,37.0327 C7.0853,36.7097 7.1713,36.2707 7.4973,36.0507 C7.6853,35.9257 7.9153,35.9037 8.1143,35.9697" id="Fill-174" fill="#504D4F"></path>
                    </g>
                    <g id="Xicara" transform="translate(0.000000, 139.000000)">
                        <path d="M41.0654,36.1494 C48.3454,26.2284 46.2384,12.3964 36.3554,5.2504 C26.4694,-1.8916 12.5604,0.3564 5.2774,10.2734 C-2.0046,20.1934 0.1054,34.0244 9.9894,41.1674 C19.8734,48.3144 33.7864,46.0654 41.0654,36.1494" id="Fill-107" fill="#E6E6E6"></path>
                        <path d="M9.8662,13.5918 C14.8952,6.7368 24.2952,4.9058 31.5082,9.1198 L37.6132,0.8048 C37.8372,0.4998 38.2682,0.4328 38.5712,0.6538 L40.7402,2.2198 C41.0432,2.4418 41.1122,2.8708 40.8912,3.1728 L34.7262,11.5708 C40.4522,17.1528 41.3462,26.1988 36.4792,32.8288 C31.1252,40.1238 20.8282,41.7298 13.4792,36.4168 C6.1302,31.1028 4.5102,20.8858 9.8662,13.5918" id="Fill-111" fill="#D0D1D1"></path>
                        <path d="M11.2266,14.5747 C16.0316,8.0277 25.2776,6.5867 31.8746,11.3547 C38.4726,16.1267 39.9246,25.3007 35.1196,31.8457 C30.3106,38.3937 21.0676,39.8337 14.4686,35.0667 C7.8706,30.2967 6.4176,21.1217 11.2266,14.5747" id="Fill-113" fill="#A6A8AB"></path>
                        <path d="M13.5762,16.2734 C17.4362,11.0154 24.8632,9.8584 30.1622,13.6874 C35.4612,17.5204 36.6282,24.8884 32.7692,30.1464 C28.9052,35.4074 21.4812,36.5634 16.1802,32.7334 C10.8812,28.9024 9.7152,21.5324 13.5762,16.2734" id="Fill-115" fill="#866847"></path>
                        <path d="M29.8643,14.3604 C33.7203,17.1474 35.2343,21.9404 34.0113,26.2424 C34.0873,25.6664 33.9783,24.8364 33.1663,23.9344 C31.6563,22.2614 30.8923,22.6784 30.3633,21.0034 C29.8333,19.3284 29.3873,16.7374 26.9863,16.1024 C24.5843,15.4654 24.3313,16.2534 21.8133,16.3104 C19.2953,16.3644 18.9513,15.1454 17.3223,16.2974 C15.6933,17.4514 12.9593,19.3444 12.9593,19.3444 C15.5453,12.6154 23.9133,10.0574 29.8643,14.3604" id="Fill-117" fill="#E6E5E5"></path>
                    </g>
                    <path d="M32.0654,143.4746 L34.9004,143.4996 C34.9004,143.4996 37.9404,146.8116 38.2594,147.0226 C38.5784,147.2336 41.4454,148.5676 40.8784,149.6216 C40.3124,150.6756 40.3124,151.2716 38.8964,151.4826 C37.4804,151.6936 34.7264,150.5706 34.7264,150.5706 L32.0654,143.4746 Z" id="Fill-109" fill="#EAC09B"></path>
                    <path d="M33.9902,139.1157 L32.9902,141.3597 L34.9002,143.4997 L31.5092,148.1197 L27.7612,142.5057 C27.0892,140.0467 28.2252,138.1207 31.1432,130.8677 C31.1432,130.8677 39.8442,124.1287 49.5542,114.2017 L52.6802,107.5157 L64.7522,113.0737 C63.8432,114.5787 61.9922,116.8187 60.6872,119.9277 C57.1612,128.3237 55.3372,132.4317 52.0892,137.3827 C52.0892,137.3827 46.1092,148.6647 43.5112,150.2407 C40.9102,151.8167 38.6712,149.8467 40.0832,146.4297 C41.4942,143.0117 40.7402,141.2197 40.7402,141.2197 L38.2252,139.5257 C38.1872,139.5557 34.3942,139.1027 33.9902,139.1157" id="Fill-119" fill="#EAC09B"></path>
                    <polygon id="Fill-121" fill="#FEFEFE" points="49.5674 105.0532 42.8204 116.0752 61.2174 128.1582 68.7594 117.0222"></polygon>
                    <polygon id="Fill-123" fill="#FCD4B4" points="151.9043 202.1128 176.1783 199.0828 172.0293 185.2858 168.4063 182.8338 151.2163 184.9838"></polygon>
                    <path d="M124.5293,179.5366 C127.1333,179.7096 147.5653,180.0326 147.6313,184.7236 C147.6973,189.3566 132.4593,185.5036 130.2273,185.0276 C124.4383,184.3016 123.8063,181.5906 124.5293,179.5366" id="Fill-125" fill="#EFC9AA"></path>
                    <path d="M110.4629,192.5498 L122.3809,191.4818 L127.6849,190.7568 L127.7519,190.9248 L125.9609,191.1498 C121.0209,191.7318 122.5379,197.1988 126.5869,196.6228 L129.8779,196.1968 L129.9509,196.3758 L128.2349,196.5908 C123.2949,197.1738 124.8129,202.6398 128.8609,202.0648 L132.0689,201.6308 L132.1529,201.8378 L130.8149,202.0058 C125.8749,202.5888 127.3919,208.0548 131.4409,207.4798 L134.2749,207.0948 C141.2669,206.5388 149.9689,204.9938 154.5129,201.1068 C159.8049,195.3938 154.8399,186.8568 151.0489,185.0868 C148.0929,183.7058 146.1389,182.3958 144.0299,182.6418 L109.7119,188.1658 C104.7719,188.7438 106.4149,193.1338 110.4629,192.5498" id="Fill-127" fill="#FCD4B4"></path>
                    <path d="M154.9971,182.002 C154.3591,182.143 148.1431,183.669 148.1431,183.669 L152.5181,205.323 L165.6851,202.794 L154.9971,182.002 Z" id="Fill-129" fill="#FEFEFE"></path>
                    <path d="M67.1455,124.79 C67.1455,124.79 92.3025,87.85 98.9995,74.736 C98.9995,74.736 122.0745,59.695 130.2605,56.873 C131.4095,57.085 132.4965,57.455 133.5345,57.952 C132.1105,64.473 130.3605,74.295 129.3015,86.77 C125.1145,101.587 173.7295,143.468 190.4165,135.966 C207.0295,129.878 216.0645,124.269 220.6035,120.797 C221.6355,130.903 220.9695,148.278 218.9955,156.391 C218.3165,160.76 149.6435,181.692 149.6435,181.692 L160.2615,207.072 C160.2615,207.072 228.0335,192.766 238.9805,175.716 C251.2825,143.014 262.9395,99.738 244.3135,77.682 C238.0435,66.593 224.6705,54.81 207.8005,45.491 C206.1835,44.267 204.5895,43.063 203.0155,41.869 L202.8795,42.051 C193.8465,35.692 157.1005,9.009 148.6175,14.354 C116.5325,27.839 87.1215,50.664 82.4165,56.279 C66.0855,77.229 43.2065,109.852 43.2065,109.852 L67.1455,124.79 Z" id="Fill-131" fill="#414141"></path>
                    <path d="M158.7529,203.4639 L160.2619,207.0719 C160.2619,207.0719 228.0329,192.7659 238.9809,175.7159 C251.2819,143.0139 262.9399,99.7379 244.3139,77.6819 C238.0439,66.5929 224.6709,54.8099 207.8009,45.4909 C206.1839,44.2669 204.5899,43.0629 203.0159,41.8689 L202.8799,42.0509 C193.8469,35.6929 157.1009,9.0089 148.6169,14.3539 C116.5319,27.8389 87.1209,50.6639 82.4169,56.2789 C66.0859,77.2299 43.2059,109.8529 43.2059,109.8529 L48.8619,113.3819 C57.6899,100.3529 82.4099,63.9789 85.3809,60.9059 C89.0059,57.1559 140.1339,28.0309 140.1339,28.0309 C140.1339,28.0309 154.6339,23.0309 167.6339,28.5309 C180.6339,34.0309 245.8839,96.7809 247.3839,110.0309 C248.8839,123.2809 234.8839,170.7809 228.3839,176.7809 C222.9319,181.8139 174.2919,198.2849 158.7529,203.4639" id="Fill-133" fill="#36363A"></path>
                    <path d="M133.4561,99.894 C134.9111,102.109 136.6791,104.415 138.6821,106.748 C142.5431,110.355 147.5071,115.231 152.5111,120.13 C160.5661,126.75 169.4731,132.377 177.1111,135.102 C178.7941,128.982 179.8951,118.739 181.2721,116.202 C183.2541,112.55 199.2551,92.01 199.2551,92.01 L169.4051,54.248 C167.8531,56.444 154.3761,77.399 148.4301,86.391 C144.3891,92.502 137.1041,97.626 133.4561,99.894" id="Fill-135" fill="#FEFEFE"></path>
                    <g id="Boneco" transform="translate(140.000000, 0.000000)">
                        <mask id="mask-13" fill="white">
                            <use xlink:href="#path-12"></use>
                        </mask>
                        <g id="Clip-138"></g>
                        <path d="M129.7695,107.6133 C127.2775,110.6203 122.5295,110.8233 119.1635,108.0753 C119.1635,108.0753 106.4795,77.0153 71.4095,48.3923 C36.3435,19.7663 3.9485,14.0203 3.9485,14.0203 C0.5815,11.2693 -0.1275,6.6063 2.3675,3.5963 C12.2915,-8.3617 61.5635,12.7613 84.8325,31.8233 C108.6485,51.3343 138.4025,97.0723 129.7695,107.6133" id="Fill-137" fill="#302E30" mask="url(#mask-13)"></path>
                    </g>
                    <path d="M170.6328,87.2578 C170.6158,87.2868 170.5938,87.3068 170.5708,87.3338 C168.6778,89.8638 169.9458,97.1658 171.7968,98.3838 C173.2258,99.8178 180.4858,98.9598 182.3828,96.4278 C182.4658,96.3198 182.5378,96.1988 182.6108,96.0808 C196.7238,103.4338 207.1978,97.9628 214.8368,87.7748 C223.5658,76.1258 220.4728,59.1768 207.9298,49.9188 C195.3808,40.6588 178.1388,42.5998 169.4048,54.2478 C161.7578,64.4528 159.2418,75.8238 170.6328,87.2578" id="Fill-140" fill="#E4B286"></path>
                    <path d="M228.833,74.3145 C232.515,74.7355 234.886,76.6325 234.815,78.4235 C234.744,80.2155 228.338,86.7475 226.002,87.0285 C223.666,87.3095 222.675,87.1685 224.091,84.2895 C225.507,81.4085 228.833,74.3145 228.833,74.3145" id="Fill-142" fill="#E4B286"></path>
                    <path d="M176.3105,36.4526 C176.2405,35.3286 174.2575,32.0976 172.8415,32.7996 C171.4265,33.5016 168.5245,37.9276 167.6745,41.7206 C166.8255,45.5146 166.5415,47.9026 168.3825,46.9196 C170.2225,45.9356 176.3105,36.4526 176.3105,36.4526" id="Fill-144" fill="#E4B286"></path>
                    <path d="M163.5283,59.5513 C162.8693,41.2383 194.8433,-0.0587 224.7913,22.0473 C252.7513,42.6813 241.1663,66.9273 231.7413,79.0053 C226.6223,85.5663 218.0733,96.6773 208.9243,97.7763 C207.5883,99.3833 204.8073,100.1893 200.8303,100.2953 C196.8513,100.4023 191.7443,98.2673 191.7443,98.2673 C191.7443,98.2673 193.1263,99.9573 193.8673,100.5153 C194.6083,101.0733 191.6733,100.2343 187.4813,98.1703 C183.2903,96.1063 176.8793,90.0483 176.8793,90.0483 L177.5153,92.6463 C177.5153,92.6463 175.1793,91.1723 172.1353,86.7463 C169.0913,82.3213 166.4413,75.0983 166.1903,75.4363 C165.9383,75.7743 164.2083,79.8623 164.2083,80.3533 C164.2083,80.8453 161.5173,73.6803 161.8723,66.5853 C161.9903,64.2263 162.6713,61.7743 163.5283,59.5513" id="Fill-146" fill="#434242"></path>
                    <path d="M218.2109,63.6533 C208.2639,70.5683 194.3149,71.7413 182.7799,71.1683 C173.5429,70.7103 165.8559,69.1303 163.0169,68.4823 C162.2539,68.3083 161.8419,68.2023 161.8419,68.2023 C161.8549,69.4723 161.9529,70.7263 162.1029,71.9183 C162.7189,76.8473 164.2079,80.7193 164.2079,80.3533 C164.2079,80.1903 164.3989,79.6303 164.6629,78.9423 C165.1939,77.5593 166.0229,75.6623 166.1899,75.4363 C166.4409,75.0983 169.0919,82.3203 172.1359,86.7463 C175.1799,91.1723 177.5159,92.6463 177.5159,92.6463 L176.8789,90.0483 C176.8789,90.0483 183.2899,96.1063 187.4819,98.1703 C189.7359,99.2803 191.6279,100.0363 192.7779,100.4113 C193.7679,100.7333 194.2099,100.7733 193.8669,100.5153 C193.6709,100.3673 193.4299,100.1403 193.1809,99.8853 C193.0079,99.7083 192.8309,99.5183 192.6639,99.3333 C192.1629,98.7793 191.7439,98.2673 191.7439,98.2673 C191.7439,98.2673 192.5799,98.6173 193.8389,99.0263 C194.2789,99.1693 194.7709,99.3193 195.2959,99.4643 C196.9839,99.9303 199.0239,100.3433 200.8299,100.2953 C204.8079,100.1893 207.5879,99.3833 208.9249,97.7763 C214.8039,97.0703 220.4369,92.2293 225.0689,87.1173 C227.6449,84.2753 229.9119,81.3503 231.7409,79.0053 C232.4039,78.1543 233.0789,77.2433 233.7499,76.2783 C234.5479,75.1293 235.3389,73.9033 236.1019,72.6103 C236.7849,71.4483 237.4449,70.2313 238.0639,68.9663 C240.8699,63.2203 242.8149,56.4783 242.2349,49.3673 C241.7219,43.0563 239.2219,36.4563 233.5729,30.0033 C233.8329,32.8033 233.7539,35.9423 233.0889,39.3733 C232.0899,44.5343 229.7699,50.3573 225.2899,56.6843 C225.2439,56.7493 225.1979,56.8133 225.1519,56.8773 C224.6019,57.6413 224.0199,58.3673 223.4079,59.0573 C221.8509,60.8153 220.1039,62.3383 218.2109,63.6533" id="Fill-148" fill="#3E3C3C"></path>
                </g>
            </g>
        </g>
    </g>
</svg>